solid Glass_Bed_Bracket
facet normal 0.999999999994216 3.40118822439684e-06 -1.3914291850596906e-16
  outer loop
    vertex 2.2501000965239273 -10.139358869740043 7.199785325542007
    vertex 2.250154515535505 -26.139358869647516 10.999785325542007
    vertex 2.250154515535505 -26.139358869647516 7.199785325542009
  endloop
endfacet
facet normal 0.999999999994216 3.40118822439684e-06 -1.3914291850596906e-16
  outer loop
    vertex 2.250154515535505 -26.139358869647516 10.999785325542007
    vertex 2.2501000965239273 -10.139358869740043 7.199785325542007
    vertex 2.2501000965239273 -10.139358869740043 10.999785325542005
  endloop
endfacet
facet normal -0.999999999994216 -3.401188217991857e-06 5.427028026015819e-16
  outer loop
    vertex 0.25013223398458334 -19.588254411495445 9.138014413505804
    vertex 0.25013223398458334 -19.588254411495445 8.361557278198239
    vertex 0.2501324078236336 -19.63936567206156 8.74978584585202
  endloop
endfacet
facet normal -0.999999999994216 -3.401188217991857e-06 5.427028026015819e-16
  outer loop
    vertex 0.25013223398458334 -19.588254411495445 8.361557278198239
    vertex 0.25013223398458334 -19.588254411495445 9.138014413505804
    vertex 0.25013172431439357 -19.43840377773938 9.49978584585202
  endloop
endfacet
facet normal -0.999999999994216 -3.401188217991857e-06 5.427028026015819e-16
  outer loop
    vertex 0.25013223398458334 -19.588254411495445 8.361557278198239
    vertex 0.25013172431439357 -19.43840377773938 9.49978584585202
    vertex 0.25013172431439357 -19.43840377773938 7.999785845852021
  endloop
endfacet
facet normal -0.999999999994216 -3.401188217991857e-06 5.427028026015819e-16
  outer loop
    vertex 0.25013172431439357 -19.43840377773938 7.999785845852021
    vertex 0.25013172431439357 -19.43840377773938 9.49978584585202
    vertex 0.25013091354620803 -19.200025843843928 9.810446017631842
  endloop
endfacet
facet normal -0.999999999994216 -3.401188217991857e-06 5.427028026015819e-16
  outer loop
    vertex 0.25013172431439357 -19.43840377773938 7.999785845852021
    vertex 0.25013091354620803 -19.200025843843928 9.810446017631842
    vertex 0.25013091354620803 -19.200025843843928 7.6891256740722
  endloop
endfacet
facet normal -0.999999999994216 -3.401188217991857e-06 5.427028026015819e-16
  outer loop
    vertex 0.25013091354620803 -19.200025843843928 7.6891256740722
    vertex 0.25013091354620803 -19.200025843843928 9.810446017631842
    vertex 0.25012985693246476 -18.889365672065875 10.048823951528679
  endloop
endfacet
facet normal -0.999999999994216 -3.401188217991857e-06 5.427028026015819e-16
  outer loop
    vertex 0.25013091354620803 -19.200025843843928 7.6891256740722
    vertex 0.25012985693246476 -18.889365672065875 10.048823951528679
    vertex 0.2501298569324535 -18.88936567206588 7.4507477401753635
  endloop
endfacet
facet normal -0.999999999994216 -3.401188217991857e-06 5.427028026015819e-16
  outer loop
    vertex 0.2501298569324535 -18.88936567206588 7.4507477401753635
    vertex 0.25012985693246476 -18.889365672065875 10.048823951528679
    vertex 0.2501286264797163 -18.527594239721786 7.300897106418418
  endloop
endfacet
facet normal -0.999999999994216 -3.401188217991857e-06 5.427028026015819e-16
  outer loop
    vertex 0.2501286264797163 -18.527594239721786 7.300897106418418
    vertex 0.25012985693246476 -18.889365672065875 10.048823951528679
    vertex 0.2501286264797163 -18.527594239721786 10.198674585285623
  endloop
endfacet
facet normal -0.999999999994216 -3.401188217991857e-06 5.427028026015819e-16
  outer loop
    vertex 0.2501286264797163 -18.527594239721786 7.300897106418418
    vertex 0.2501286264797163 -18.527594239721786 10.198674585285623
    vertex 0.2501273060413297 -18.13936567207023 10.24978584585202
  endloop
endfacet
facet normal -0.999999999994216 -3.401188217991857e-06 5.427028026015819e-16
  outer loop
    vertex 0.2501286264797163 -18.527594239721786 7.300897106418418
    vertex 0.2501273060413297 -18.13936567207023 10.24978584585202
    vertex 0.2501273060413297 -18.13936567207023 7.249785845852021
  endloop
endfacet
facet normal -0.999999999994216 -3.401188217991857e-06 5.427028026015819e-16
  outer loop
    vertex 0.2501273060413297 -18.13936567207023 7.249785845852021
    vertex 0.2501273060413297 -18.13936567207023 10.24978584585202
    vertex 0.2501259856028642 -17.751137104418717 10.198674585285623
  endloop
endfacet
facet normal -0.999999999994216 -3.401188217991857e-06 5.427028026015819e-16
  outer loop
    vertex 0.2501273060413297 -18.13936567207023 7.249785845852021
    vertex 0.2501259856028642 -17.751137104418717 10.198674585285623
    vertex 0.2501259856028642 -17.751137104418717 7.300897106418418
  endloop
endfacet
facet normal -0.999999999994216 -3.401188217991857e-06 5.427028026015819e-16
  outer loop
    vertex 0.2501259856028642 -17.751137104418717 7.300897106418418
    vertex 0.2501259856028642 -17.751137104418717 10.198674585285623
    vertex 0.250124755150127 -17.38936567207455 10.048823951528679
  endloop
endfacet
facet normal -0.999999999994216 -3.401188217991857e-06 5.427028026015819e-16
  outer loop
    vertex 0.2501259856028642 -17.751137104418717 7.300897106418418
    vertex 0.250124755150127 -17.38936567207455 10.048823951528679
    vertex 0.250124755150127 -17.38936567207455 7.4507477401753635
  endloop
endfacet
facet normal -0.999999999994216 -3.401188217991857e-06 5.427028026015819e-16
  outer loop
    vertex 0.250124755150127 -17.38936567207455 7.4507477401753635
    vertex 0.250124755150127 -17.38936567207455 10.048823951528679
    vertex 0.2501236985364683 -17.078705500296515 9.810446017631842
  endloop
endfacet
facet normal -0.999999999994216 -3.401188217991857e-06 5.427028026015819e-16
  outer loop
    vertex 0.250124755150127 -17.38936567207455 7.4507477401753635
    vertex 0.2501236985364683 -17.078705500296515 9.810446017631842
    vertex 0.2501236985364683 -17.078705500296515 7.6891256740722
  endloop
endfacet
facet normal -0.999999999994216 -3.401188217991857e-06 5.427028026015819e-16
  outer loop
    vertex 0.2501236985364683 -17.078705500296515 7.6891256740722
    vertex 0.2501236985364683 -17.078705500296515 9.810446017631842
    vertex 0.2501228877681869 -16.840327566401132 9.49978584585202
  endloop
endfacet
facet normal -0.999999999994216 -3.401188217991857e-06 5.427028026015819e-16
  outer loop
    vertex 0.2501236985364683 -17.078705500296515 7.6891256740722
    vertex 0.2501228877681869 -16.840327566401132 9.49978584585202
    vertex 0.2501228877681869 -16.840327566401132 7.999785845852021
  endloop
endfacet
facet normal -0.999999999994216 -3.401188217991857e-06 5.427028026015819e-16
  outer loop
    vertex 0.2501228877681869 -16.840327566401132 7.999785845852021
    vertex 0.2501228877681869 -16.840327566401132 9.49978584585202
    vertex 0.25012237809796894 -16.690476932645026 9.1380144135058
  endloop
endfacet
facet normal -0.999999999994216 -3.401188217991857e-06 5.427028026015819e-16
  outer loop
    vertex 0.2501228877681869 -16.840327566401132 7.999785845852021
    vertex 0.25012237809796894 -16.690476932645026 9.1380144135058
    vertex 0.25012237809796894 -16.690476932645026 8.361557278198239
  endloop
endfacet
facet normal -0.999999999994216 -3.401188217991857e-06 5.427028026015819e-16
  outer loop
    vertex 0.25012237809796894 -16.690476932645026 8.361557278198239
    vertex 0.25012237809796894 -16.690476932645026 9.1380144135058
    vertex 0.25012220425893555 -16.639365672078902 8.74978584585202
  endloop
endfacet
facet normal 3.4011882241446772e-06 -0.999999999994216 0.0
  outer loop
    vertex 2.250154515535505 -26.139358869647516 7.199785325542009
    vertex -1.749845484441358 -26.139372474400407 10.999785325542005
    vertex -1.749845484441358 -26.139372474400407 7.199785325542007
  endloop
endfacet
facet normal 3.4011882241446772e-06 -0.999999999994216 0.0
  outer loop
    vertex -1.749845484441358 -26.139372474400407 10.999785325542005
    vertex 2.250154515535505 -26.139358869647516 7.199785325542009
    vertex 2.250154515535505 -26.139358869647516 10.999785325542007
  endloop
endfacet
facet normal 1.7624805502130004e-16 -4.406137683725652e-17 -1.0
  outer loop
    vertex 2.2501000965239273 -10.139358869740043 7.199785325542007
    vertex -1.749845484441358 -26.139372474400407 7.199785325542007
    vertex -1.7498999034529248 -10.139372474492939 7.199785325542007
  endloop
endfacet
facet normal 1.7624805502130004e-16 -4.406137683725652e-17 -1.0
  outer loop
    vertex -1.749845484441358 -26.139372474400407 7.199785325542007
    vertex 2.2501000965239273 -10.139358869740043 7.199785325542007
    vertex 2.250154515535505 -26.139358869647516 7.199785325542009
  endloop
endfacet
facet normal -0.999999999994216 -3.401188222469129e-06 2.5045763055913763e-15
  outer loop
    vertex -1.749845484441358 -26.139372474400407 10.999785325542005
    vertex -1.7498713735087181 -18.527601042098222 10.198674585285625
    vertex -1.749845484441358 -26.139372474400407 7.199785325542007
  endloop
endfacet
facet normal -0.999999999994216 -3.401188222469129e-06 2.5045763055913763e-15
  outer loop
    vertex -1.7498713735087181 -18.527601042098222 10.198674585285625
    vertex -1.749845484441358 -26.139372474400407 10.999785325542005
    vertex -1.7498726939471048 -18.139372474446667 10.249785845852022
  endloop
endfacet
facet normal -0.999999999994216 -3.401188222469129e-06 2.5045763055913763e-15
  outer loop
    vertex -1.7498726939471048 -18.139372474446667 10.249785845852022
    vertex -1.749845484441358 -26.139372474400407 10.999785325542005
    vertex -1.749899903452908 -10.139372474492939 10.999785325542005
  endloop
endfacet
facet normal -0.999999999994216 -3.401188222469129e-06 2.5045763055913763e-15
  outer loop
    vertex -1.749845484441358 -26.139372474400407 7.199785325542007
    vertex -1.7498713735087181 -18.527601042098222 10.198674585285625
    vertex -1.7498701430559698 -18.88937247444231 10.04882395152868
  endloop
endfacet
facet normal -0.999999999994216 -3.401188222469129e-06 2.5045763055913763e-15
  outer loop
    vertex -1.749845484441358 -26.139372474400407 7.199785325542007
    vertex -1.7498701430559698 -18.88937247444231 10.04882395152868
    vertex -1.7498690864422264 -19.200032646220368 9.810446017631843
  endloop
endfacet
facet normal -0.999999999994216 -3.401188222469129e-06 2.5045763055913763e-15
  outer loop
    vertex -1.749845484441358 -26.139372474400407 7.199785325542007
    vertex -1.7498690864422264 -19.200032646220368 9.810446017631843
    vertex -1.749868275674041 -19.43841058011582 9.499785845852022
  endloop
endfacet
facet normal -0.999999999994216 -3.401188222469129e-06 2.5045763055913763e-15
  outer loop
    vertex -1.749845484441358 -26.139372474400407 7.199785325542007
    vertex -1.749868275674041 -19.43841058011582 9.499785845852022
    vertex -1.749867766003851 -19.58826121387189 9.138014413505804
  endloop
endfacet
facet normal -0.999999999994216 -3.401188222469129e-06 2.5045763055913763e-15
  outer loop
    vertex -1.749845484441358 -26.139372474400407 7.199785325542007
    vertex -1.749867766003851 -19.58826121387189 9.138014413505804
    vertex -1.7498675921648121 -19.639372474437998 8.749785845852022
  endloop
endfacet
facet normal -0.999999999994216 -3.401188222469129e-06 2.5045763055913763e-15
  outer loop
    vertex -1.7498726939471048 -18.139372474446667 10.249785845852022
    vertex -1.749899903452908 -10.139372474492939 10.999785325542005
    vertex -1.7498740143855702 -17.751143906795154 10.198674585285625
  endloop
endfacet
facet normal -0.999999999994216 -3.401188222469129e-06 2.5045763055913763e-15
  outer loop
    vertex -1.7498740143855702 -17.751143906795154 10.198674585285625
    vertex -1.749899903452908 -10.139372474492939 10.999785325542005
    vertex -1.7498752448383075 -17.389372474450987 10.048823951528679
  endloop
endfacet
facet normal -0.999999999994216 -3.401188222469129e-06 2.5045763055913763e-15
  outer loop
    vertex -1.7498752448383075 -17.389372474450987 10.048823951528679
    vertex -1.749899903452908 -10.139372474492939 10.999785325542005
    vertex -1.7498763014519718 -17.078712302672947 9.810446017631843
  endloop
endfacet
facet normal -0.999999999994216 -3.401188222469129e-06 2.5045763055913763e-15
  outer loop
    vertex -1.7498763014519718 -17.078712302672947 9.810446017631843
    vertex -1.749899903452908 -10.139372474492939 10.999785325542005
    vertex -1.7498771122202477 -16.84033436877757 9.499785845852022
  endloop
endfacet
facet normal -0.999999999994216 -3.401188222469129e-06 2.5045763055913763e-15
  outer loop
    vertex -1.7498771122202477 -16.84033436877757 9.499785845852022
    vertex -1.749899903452908 -10.139372474492939 10.999785325542005
    vertex -1.7498776218904655 -16.69048373502146 9.138014413505802
  endloop
endfacet
facet normal -0.999999999994216 -3.401188222469129e-06 2.5045763055913763e-15
  outer loop
    vertex -1.7498776218904655 -16.69048373502146 9.138014413505802
    vertex -1.749899903452908 -10.139372474492939 10.999785325542005
    vertex -1.7498777957294989 -16.63937247445534 8.749785845852022
  endloop
endfacet
facet normal -0.999999999994216 -3.401188222469129e-06 2.5045763055913763e-15
  outer loop
    vertex -1.749845484441358 -26.139372474400407 7.199785325542007
    vertex -1.7498726939471048 -18.139372474446667 7.2497858458520215
    vertex -1.7498999034529248 -10.139372474492939 7.199785325542007
  endloop
endfacet
facet normal -0.999999999994216 -3.401188222469129e-06 2.5045763055913763e-15
  outer loop
    vertex -1.7498726939471048 -18.139372474446667 7.2497858458520215
    vertex -1.749845484441358 -26.139372474400407 7.199785325542007
    vertex -1.7498713735087181 -18.527601042098222 7.30089710641842
  endloop
endfacet
facet normal -0.999999999994216 -3.401188222469129e-06 2.5045763055913763e-15
  outer loop
    vertex -1.7498713735087181 -18.527601042098222 7.30089710641842
    vertex -1.749845484441358 -26.139372474400407 7.199785325542007
    vertex -1.749870143055981 -18.889372474442318 7.450747740175364
  endloop
endfacet
facet normal -0.999999999994216 -3.401188222469129e-06 2.5045763055913763e-15
  outer loop
    vertex -1.749870143055981 -18.889372474442318 7.450747740175364
    vertex -1.749845484441358 -26.139372474400407 7.199785325542007
    vertex -1.7498690864422264 -19.200032646220368 7.6891256740722005
  endloop
endfacet
facet normal -0.999999999994216 -3.401188222469129e-06 2.5045763055913763e-15
  outer loop
    vertex -1.7498690864422264 -19.200032646220368 7.6891256740722005
    vertex -1.749845484441358 -26.139372474400407 7.199785325542007
    vertex -1.749868275674041 -19.43841058011582 7.9997858458520215
  endloop
endfacet
facet normal -0.999999999994216 -3.401188222469129e-06 2.5045763055913763e-15
  outer loop
    vertex -1.749868275674041 -19.43841058011582 7.9997858458520215
    vertex -1.749845484441358 -26.139372474400407 7.199785325542007
    vertex -1.749867766003851 -19.58826121387189 8.36155727819824
  endloop
endfacet
facet normal -0.999999999994216 -3.401188222469129e-06 2.5045763055913763e-15
  outer loop
    vertex -1.749867766003851 -19.58826121387189 8.36155727819824
    vertex -1.749845484441358 -26.139372474400407 7.199785325542007
    vertex -1.7498675921648121 -19.639372474437998 8.749785845852022
  endloop
endfacet
facet normal -0.999999999994216 -3.401188222469129e-06 2.5045763055913763e-15
  outer loop
    vertex -1.7498999034529248 -10.139372474492939 7.199785325542007
    vertex -1.7498726939471048 -18.139372474446667 7.2497858458520215
    vertex -1.7498740143855702 -17.751143906795154 7.30089710641842
  endloop
endfacet
facet normal -0.999999999994216 -3.401188222469129e-06 2.5045763055913763e-15
  outer loop
    vertex -1.7498999034529248 -10.139372474492939 7.199785325542007
    vertex -1.7498740143855702 -17.751143906795154 7.30089710641842
    vertex -1.7498752448383075 -17.389372474450987 7.450747740175364
  endloop
endfacet
facet normal -0.999999999994216 -3.401188222469129e-06 2.5045763055913763e-15
  outer loop
    vertex -1.7498999034529248 -10.139372474492939 7.199785325542007
    vertex -1.7498752448383075 -17.389372474450987 7.450747740175364
    vertex -1.7498763014519718 -17.078712302672947 7.6891256740722005
  endloop
endfacet
facet normal -0.999999999994216 -3.401188222469129e-06 2.5045763055913763e-15
  outer loop
    vertex -1.7498999034529248 -10.139372474492939 7.199785325542007
    vertex -1.7498763014519718 -17.078712302672947 7.6891256740722005
    vertex -1.7498771122202477 -16.84033436877757 7.9997858458520215
  endloop
endfacet
facet normal -0.999999999994216 -3.401188222469129e-06 2.5045763055913763e-15
  outer loop
    vertex -1.7498999034529248 -10.139372474492939 7.199785325542007
    vertex -1.7498771122202477 -16.84033436877757 7.9997858458520215
    vertex -1.7498776218904655 -16.69048373502146 8.36155727819824
  endloop
endfacet
facet normal -0.999999999994216 -3.401188222469129e-06 2.5045763055913763e-15
  outer loop
    vertex -1.7498999034529248 -10.139372474492939 7.199785325542007
    vertex -1.7498776218904655 -16.69048373502146 8.36155727819824
    vertex -1.7498777957294989 -16.63937247445534 8.749785845852022
  endloop
endfacet
facet normal -0.999999999994216 -3.401188222469129e-06 2.5045763055913763e-15
  outer loop
    vertex -1.7498999034529248 -10.139372474492939 7.199785325542007
    vertex -1.7498777957294989 -16.63937247445534 8.749785845852022
    vertex -1.749899903452908 -10.139372474492939 10.999785325542005
  endloop
endfacet
facet normal 4.439441465801455e-07 -0.13052619221930412 -0.9914448613738095
  outer loop
    vertex 0.2501259856028642 -17.751137104418717 10.198674585285623
    vertex -1.7498726939471048 -18.139372474446667 10.249785845852022
    vertex -1.7498740143855702 -17.751143906795154 10.198674585285625
  endloop
endfacet
facet normal 4.439441465801455e-07 -0.13052619221930412 -0.9914448613738095
  outer loop
    vertex -1.7498726939471048 -18.139372474446667 10.249785845852022
    vertex 0.2501259856028642 -17.751137104418717 10.198674585285623
    vertex 0.2501273060413297 -18.13936567207023 10.24978584585202
  endloop
endfacet
facet normal 2.0705121994817265e-06 -0.6087614290051802 -0.79335334029125
  outer loop
    vertex 0.2501236985364683 -17.078705500296515 9.810446017631842
    vertex -1.7498752448383075 -17.389372474450987 10.048823951528679
    vertex -1.7498763014519718 -17.078712302672947 9.810446017631843
  endloop
endfacet
facet normal 2.0705121994817265e-06 -0.6087614290051802 -0.79335334029125
  outer loop
    vertex -1.7498752448383075 -17.389372474450987 10.048823951528679
    vertex 0.2501236985364683 -17.078705500296515 9.810446017631842
    vertex 0.250124755150127 -17.38936567207455 10.048823951528679
  endloop
endfacet
facet normal 2.0705122003428363e-06 -0.6087614290051802 0.79335334029125
  outer loop
    vertex -1.7498752448383075 -17.389372474450987 7.450747740175364
    vertex 0.2501236985364683 -17.078705500296515 7.6891256740722
    vertex -1.7498763014519718 -17.078712302672947 7.6891256740722005
  endloop
endfacet
facet normal 2.0705122003428363e-06 -0.6087614290051802 0.79335334029125
  outer loop
    vertex 0.2501236985364683 -17.078705500296515 7.6891256740722
    vertex -1.7498752448383075 -17.389372474450987 7.450747740175364
    vertex 0.250124755150127 -17.38936567207455 7.4507477401753635
  endloop
endfacet
facet normal 4.4394414765626535e-07 -0.13052619221930412 0.9914448613738095
  outer loop
    vertex -1.7498726939471048 -18.139372474446667 7.2497858458520215
    vertex 0.2501259856028642 -17.751137104418717 7.300897106418418
    vertex -1.7498740143855702 -17.751143906795154 7.30089710641842
  endloop
endfacet
facet normal 4.4394414765626535e-07 -0.13052619221930412 0.9914448613738095
  outer loop
    vertex 0.2501259856028642 -17.751137104418717 7.300897106418418
    vertex -1.7498726939471048 -18.139372474446667 7.2497858458520215
    vertex 0.2501273060413297 -18.13936567207023 7.249785845852021
  endloop
endfacet
facet normal -3.3720905812223274e-06 0.9914448613680731 0.1305261922200729
  outer loop
    vertex -1.749867766003851 -19.58826121387189 8.36155727819824
    vertex 0.2501324078236336 -19.63936567206156 8.74978584585202
    vertex 0.25013223398458334 -19.588254411495445 8.361557278198239
  endloop
endfacet
facet normal -3.3720905812223274e-06 0.9914448613680731 0.1305261922200729
  outer loop
    vertex 0.2501324078236336 -19.63936567206156 8.74978584585202
    vertex -1.749867766003851 -19.58826121387189 8.36155727819824
    vertex -1.7498675921648121 -19.639372474437998 8.749785845852022
  endloop
endfacet
facet normal -2.6983440340334285e-06 0.7933533402866519 -0.6087614290087133
  outer loop
    vertex -1.749868275674041 -19.43841058011582 9.499785845852022
    vertex 0.25013091354620803 -19.200025843843928 9.810446017631842
    vertex 0.25013172431439357 -19.43840377773938 9.49978584585202
  endloop
endfacet
facet normal -2.6983440340334285e-06 0.7933533402866519 -0.6087614290087133
  outer loop
    vertex 0.25013091354620803 -19.200025843843928 9.810446017631842
    vertex -1.749868275674041 -19.43841058011582 9.499785845852022
    vertex -1.7498690864422264 -19.200032646220368 9.810446017631843
  endloop
endfacet
facet normal -2.070512200342784e-06 0.6087614290051651 -0.7933533402912617
  outer loop
    vertex 0.25012985693246476 -18.889365672065875 10.048823951528679
    vertex -1.7498690864422264 -19.200032646220368 9.810446017631843
    vertex -1.7498701430559698 -18.88937247444231 10.04882395152868
  endloop
endfacet
facet normal -2.070512200342784e-06 0.6087614290051651 -0.7933533402912617
  outer loop
    vertex -1.7498690864422264 -19.200032646220368 9.810446017631843
    vertex 0.25012985693246476 -18.889365672065875 10.048823951528679
    vertex 0.25013091354620803 -19.200025843843928 9.810446017631842
  endloop
endfacet
facet normal -3.1422881810289226e-06 0.9238795325059508 -0.38268343236507096
  outer loop
    vertex -1.749867766003851 -19.58826121387189 9.138014413505804
    vertex 0.25013172431439357 -19.43840377773938 9.49978584585202
    vertex 0.25013223398458334 -19.588254411495445 9.138014413505804
  endloop
endfacet
facet normal -3.1422881810289226e-06 0.9238795325059508 -0.38268343236507096
  outer loop
    vertex 0.25013172431439357 -19.43840377773938 9.49978584585202
    vertex -1.749867766003851 -19.58826121387189 9.138014413505804
    vertex -1.749868275674041 -19.43841058011582 9.499785845852022
  endloop
endfacet
facet normal 1.3015783818821073e-06 -0.38268343236284347 0.9238795325113004
  outer loop
    vertex -1.7498740143855702 -17.751143906795154 7.30089710641842
    vertex 0.250124755150127 -17.38936567207455 7.4507477401753635
    vertex -1.7498752448383075 -17.389372474450987 7.450747740175364
  endloop
endfacet
facet normal 1.3015783818821073e-06 -0.38268343236284347 0.9238795325113004
  outer loop
    vertex 0.250124755150127 -17.38936567207455 7.4507477401753635
    vertex -1.7498740143855702 -17.751143906795154 7.30089710641842
    vertex 0.2501259856028642 -17.751137104418717 7.300897106418418
  endloop
endfacet
facet normal -2.6983440333726755e-06 0.7933533402866519 0.6087614290087133
  outer loop
    vertex -1.7498690864422264 -19.200032646220368 7.6891256740722005
    vertex 0.25013172431439357 -19.43840377773938 7.999785845852021
    vertex 0.25013091354620803 -19.200025843843928 7.6891256740722
  endloop
endfacet
facet normal -2.6983440333726755e-06 0.7933533402866519 0.6087614290087133
  outer loop
    vertex 0.25013172431439357 -19.43840377773938 7.999785845852021
    vertex -1.7498690864422264 -19.200032646220368 7.6891256740722005
    vertex -1.749868275674041 -19.43841058011582 7.9997858458520215
  endloop
endfacet
facet normal -3.3720905813640017e-06 0.9914448613680732 -0.13052619222007245
  outer loop
    vertex -1.7498675921648121 -19.639372474437998 8.749785845852022
    vertex 0.25013223398458334 -19.588254411495445 9.138014413505804
    vertex 0.2501324078236336 -19.63936567206156 8.74978584585202
  endloop
endfacet
facet normal -3.3720905813640017e-06 0.9914448613680732 -0.13052619222007245
  outer loop
    vertex 0.25013223398458334 -19.588254411495445 9.138014413505804
    vertex -1.7498675921648121 -19.639372474437998 8.749785845852022
    vertex -1.749867766003851 -19.58826121387189 9.138014413505804
  endloop
endfacet
facet normal -4.439441465800979e-07 0.13052619221929013 0.9914448613738114
  outer loop
    vertex -1.7498713735087181 -18.527601042098222 7.30089710641842
    vertex 0.2501273060413297 -18.13936567207023 7.249785845852021
    vertex -1.7498726939471048 -18.139372474446667 7.2497858458520215
  endloop
endfacet
facet normal -4.439441465800979e-07 0.13052619221929013 0.9914448613738114
  outer loop
    vertex 0.2501273060413297 -18.13936567207023 7.249785845852021
    vertex -1.7498713735087181 -18.527601042098222 7.30089710641842
    vertex 0.2501286264797163 -18.527594239721786 7.300897106418418
  endloop
endfacet
facet normal 1.3015783808793232e-06 -0.38268343236284347 -0.9238795325113004
  outer loop
    vertex 0.250124755150127 -17.38936567207455 10.048823951528679
    vertex -1.7498740143855702 -17.751143906795154 10.198674585285625
    vertex -1.7498752448383075 -17.389372474450987 10.048823951528679
  endloop
endfacet
facet normal 1.3015783808793232e-06 -0.38268343236284347 -0.9238795325113004
  outer loop
    vertex -1.7498740143855702 -17.751143906795154 10.198674585285625
    vertex 0.250124755150127 -17.38936567207455 10.048823951528679
    vertex 0.2501259856028642 -17.751137104418717 10.198674585285623
  endloop
endfacet
facet normal -4.4394414765621776e-07 0.13052619221929013 -0.9914448613738114
  outer loop
    vertex 0.2501273060413297 -18.13936567207023 10.24978584585202
    vertex -1.7498713735087181 -18.527601042098222 10.198674585285625
    vertex -1.7498726939471048 -18.139372474446667 10.249785845852022
  endloop
endfacet
facet normal -4.4394414765621776e-07 0.13052619221929013 -0.9914448613738114
  outer loop
    vertex -1.7498713735087181 -18.527601042098222 10.198674585285625
    vertex 0.2501273060413297 -18.13936567207023 10.24978584585202
    vertex 0.2501286264797163 -18.527594239721786 10.198674585285623
  endloop
endfacet
facet normal 3.142288180613446e-06 -0.9238795325059187 -0.3826834323651483
  outer loop
    vertex 0.2501228877681869 -16.840327566401132 9.49978584585202
    vertex -1.7498776218904655 -16.69048373502146 9.138014413505802
    vertex 0.25012237809796894 -16.690476932645026 9.1380144135058
  endloop
endfacet
facet normal 3.142288180613446e-06 -0.9238795325059187 -0.3826834323651483
  outer loop
    vertex -1.7498776218904655 -16.69048373502146 9.138014413505802
    vertex 0.2501228877681869 -16.840327566401132 9.49978584585202
    vertex -1.7498771122202477 -16.84033436877757 9.499785845852022
  endloop
endfacet
facet normal 3.372090581363985e-06 -0.9914448613680685 0.1305261922201083
  outer loop
    vertex 0.25012220425893555 -16.639365672078902 8.74978584585202
    vertex -1.7498776218904655 -16.69048373502146 8.36155727819824
    vertex 0.25012237809796894 -16.690476932645026 8.361557278198239
  endloop
endfacet
facet normal 3.372090581363985e-06 -0.9914448613680685 0.1305261922201083
  outer loop
    vertex -1.7498776218904655 -16.69048373502146 8.36155727819824
    vertex 0.25012220425893555 -16.639365672078902 8.74978584585202
    vertex -1.7498777957294989 -16.63937247445534 8.749785845852022
  endloop
endfacet
facet normal 2.698344034033737e-06 -0.7933533402867425 0.6087614290085955
  outer loop
    vertex 0.2501228877681869 -16.840327566401132 7.999785845852021
    vertex -1.7498763014519718 -17.078712302672947 7.6891256740722005
    vertex 0.2501236985364683 -17.078705500296515 7.6891256740722
  endloop
endfacet
facet normal 2.698344034033737e-06 -0.7933533402867425 0.6087614290085955
  outer loop
    vertex -1.7498763014519718 -17.078712302672947 7.6891256740722005
    vertex 0.2501228877681869 -16.840327566401132 7.999785845852021
    vertex -1.7498771122202477 -16.84033436877757 7.9997858458520215
  endloop
endfacet
facet normal 2.6983440333729838e-06 -0.7933533402867425 -0.6087614290085955
  outer loop
    vertex 0.2501236985364683 -17.078705500296515 9.810446017631842
    vertex -1.7498771122202477 -16.84033436877757 9.499785845852022
    vertex 0.2501228877681869 -16.840327566401132 9.49978584585202
  endloop
endfacet
facet normal 2.6983440333729838e-06 -0.7933533402867425 -0.6087614290085955
  outer loop
    vertex -1.7498771122202477 -16.84033436877757 9.499785845852022
    vertex 0.2501236985364683 -17.078705500296515 9.810446017631842
    vertex -1.7498763014519718 -17.078712302672947 9.810446017631843
  endloop
endfacet
facet normal 3.3720905812223113e-06 -0.9914448613680684 -0.13052619222010875
  outer loop
    vertex 0.25012237809796894 -16.690476932645026 9.1380144135058
    vertex -1.7498777957294989 -16.63937247445534 8.749785845852022
    vertex 0.25012220425893555 -16.639365672078902 8.74978584585202
  endloop
endfacet
facet normal 3.3720905812223113e-06 -0.9914448613680684 -0.13052619222010875
  outer loop
    vertex -1.7498777957294989 -16.63937247445534 8.749785845852022
    vertex 0.25012237809796894 -16.690476932645026 9.1380144135058
    vertex -1.7498776218904655 -16.69048373502146 9.138014413505802
  endloop
endfacet
facet normal 3.142288181028813e-06 -0.9238795325059184 0.3826834323651497
  outer loop
    vertex 0.25012237809796894 -16.690476932645026 8.361557278198239
    vertex -1.7498771122202477 -16.84033436877757 7.9997858458520215
    vertex 0.2501228877681869 -16.840327566401132 7.999785845852021
  endloop
endfacet
facet normal 3.142288181028813e-06 -0.9238795325059184 0.3826834323651497
  outer loop
    vertex -1.7498771122202477 -16.84033436877757 7.9997858458520215
    vertex 0.25012237809796894 -16.690476932645026 8.361557278198239
    vertex -1.7498776218904655 -16.69048373502146 8.36155727819824
  endloop
endfacet
facet normal -3.142288180613558e-06 0.9238795325059513 0.3826834323650697
  outer loop
    vertex -1.749868275674041 -19.43841058011582 7.9997858458520215
    vertex 0.25013223398458334 -19.588254411495445 8.361557278198239
    vertex 0.25013172431439357 -19.43840377773938 7.999785845852021
  endloop
endfacet
facet normal -3.142288180613558e-06 0.9238795325059513 0.3826834323650697
  outer loop
    vertex 0.25013223398458334 -19.588254411495445 8.361557278198239
    vertex -1.749868275674041 -19.43841058011582 7.9997858458520215
    vertex -1.749867766003851 -19.58826121387189 8.36155727819824
  endloop
endfacet
facet normal -1.3015783818823222e-06 0.38268343236290664 -0.9238795325112743
  outer loop
    vertex 0.2501286264797163 -18.527594239721786 10.198674585285623
    vertex -1.7498701430559698 -18.88937247444231 10.04882395152868
    vertex -1.7498713735087181 -18.527601042098222 10.198674585285625
  endloop
endfacet
facet normal -1.3015783818823222e-06 0.38268343236290664 -0.9238795325112743
  outer loop
    vertex -1.7498701430559698 -18.88937247444231 10.04882395152868
    vertex 0.2501286264797163 -18.527594239721786 10.198674585285623
    vertex 0.25012985693246476 -18.889365672065875 10.048823951528679
  endloop
endfacet
facet normal -2.0705121994816905e-06 0.6087614290051697 0.7933533402912581
  outer loop
    vertex -1.7498690864422264 -19.200032646220368 7.6891256740722005
    vertex 0.2501298569324535 -18.88936567206588 7.4507477401753635
    vertex -1.749870143055981 -18.889372474442318 7.450747740175364
  endloop
endfacet
facet normal -2.0705121994816905e-06 0.6087614290051697 0.7933533402912581
  outer loop
    vertex 0.2501298569324535 -18.88936567206588 7.4507477401753635
    vertex -1.7498690864422264 -19.200032646220368 7.6891256740722005
    vertex 0.25013091354620803 -19.200025843843928 7.6891256740722
  endloop
endfacet
facet normal -1.3015783808795312e-06 0.3826834323629046 0.9238795325112751
  outer loop
    vertex -1.749870143055981 -18.889372474442318 7.450747740175364
    vertex 0.2501286264797163 -18.527594239721786 7.300897106418418
    vertex -1.7498713735087181 -18.527601042098222 7.30089710641842
  endloop
endfacet
facet normal -1.3015783808795312e-06 0.3826834323629046 0.9238795325112751
  outer loop
    vertex 0.2501286264797163 -18.527594239721786 7.300897106418418
    vertex -1.749870143055981 -18.889372474442318 7.450747740175364
    vertex 0.2501298569324535 -18.88936567206588 7.4507477401753635
  endloop
endfacet
facet normal -1.762480550213008e-16 4.4061376837256623e-17 1.0
  outer loop
    vertex -1.749845484441358 -26.139372474400407 10.999785325542005
    vertex 2.2501000965239273 -10.139358869740043 10.999785325542005
    vertex -1.749899903452908 -10.139372474492939 10.999785325542005
  endloop
endfacet
facet normal -1.762480550213008e-16 4.4061376837256623e-17 1.0
  outer loop
    vertex 2.2501000965239273 -10.139358869740043 10.999785325542005
    vertex -1.749845484441358 -26.139372474400407 10.999785325542005
    vertex 2.250154515535505 -26.139358869647516 10.999785325542007
  endloop
endfacet
facet normal -3.4011882241655447e-06 0.999999999994216 -1.8551533913700814e-16
  outer loop
    vertex -1.749899903452908 -10.139372474492939 10.999785325542005
    vertex 2.2501000965239273 -10.139358869740043 7.199785325542007
    vertex -1.7498999034529248 -10.139372474492939 7.199785325542007
  endloop
endfacet
facet normal -3.4011882241655447e-06 0.999999999994216 -1.8551533913700814e-16
  outer loop
    vertex 2.2501000965239273 -10.139358869740043 7.199785325542007
    vertex -1.749899903452908 -10.139372474492939 10.999785325542005
    vertex 2.2501000965239273 -10.139358869740043 10.999785325542005
  endloop
endfacet
endsolid Glass_Bed_Bracket
